<?xml version="1.0" encoding="UTF-8"?>
<!DOCTYPE svg PUBLIC "-//W3C//DTD SVG 1.1//EN" "http://www.w3.org/Graphics/SVG/1.1/DTD/svg11.dtd">
<svg version="1.1" xmlns="http://www.w3.org/2000/svg" xmlns:xlink="http://www.w3.org/1999/xlink" x="0" y="0" width="256" height="256" viewBox="0, 0, 256, 256">
  <g id="Background">
    <rect x="0" y="0" width="256" height="256" fill="#9B9B9B"/>
  </g>
  <g id="Layer_2">
    <g>
      <text transform="matrix(1, 0, 0, 1, 136.5, 349.5)">
        <tspan x="-87.57" y="-101.932" font-family="HelveticaNeue-Bold" font-size="315" fill="#0015CD">2</tspan>
      </text>
      <path d="M60.585,111.803 L103.425,111.803 Q103.425,102.983 105.158,94.005 Q106.89,85.028 110.985,77.625 Q115.08,70.223 121.853,65.655 Q128.625,61.088 138.39,61.088 Q152.88,61.088 162.173,70.065 Q171.465,79.043 171.465,95.108 Q171.465,105.188 166.898,113.063 Q162.33,120.938 155.557,127.238 Q148.785,133.538 140.595,138.735 Q132.405,143.933 125.16,148.973 Q110.985,158.738 98.228,168.188 Q85.47,177.638 76.02,188.82 Q66.57,200.003 61.057,214.178 Q55.545,228.353 55.545,247.568 L217.455,247.568 L217.455,209.138 L113.19,209.138 Q121.38,197.798 132.09,189.293 Q142.8,180.788 154.14,173.385 Q165.48,165.983 176.663,158.423 Q187.845,150.863 196.665,141.57 Q205.485,132.278 210.84,120.308 Q216.195,108.338 216.195,91.643 Q216.195,75.578 210.053,62.663 Q203.91,49.748 193.515,40.928 Q183.12,32.108 169.417,27.383 Q155.715,22.658 140.595,22.658 Q120.75,22.658 105.472,29.43 Q90.195,36.203 80.115,48.33 Q70.035,60.458 64.995,76.68 Q59.955,92.903 60.585,111.803 z" fill-opacity="0" stroke="#0015CD" stroke-width="1"/>
    </g>
    <text transform="matrix(1, 0, 0, 1, 128, 342.5)">
      <tspan x="-87.57" y="-101.932" font-family="HelveticaNeue-Bold" font-size="315" fill="#347BE6">2</tspan>
    </text>
    <text transform="matrix(1, 0, 0, 1, 119.5, 334)">
      <tspan x="-87.57" y="-101.932" font-family="HelveticaNeue-Bold" font-size="315" fill="#FFFFFF">2</tspan>
    </text>
  </g>
</svg>
